<?xml version="1.0" encoding="UTF-8" standalone="no"?>
<svg version="1.1" x="0px" y="0px" viewBox="0 0 247.7 173.8" xml:space="preserve" width="247.7" height="173.8" xmlns="http://www.w3.org/2000/svg" xmlns:svg="http://www.w3.org/2000/svg"><defs />
<style type="text/css" > .st0{fill:#D22D40;} .st1{fill:#003657;} .st2{display:none;} .st3{display:inline;opacity:0.1;fill:#C40D3C;} .st4{display:inline;} .st5{fill:none;stroke:#C40D3C;stroke-width:10.0e-02;stroke-miterlimit:10;} .st6{fill:none;stroke:#C40D3C;stroke-width:10.0e-02;stroke-miterlimit:10;stroke-dasharray:5.9,2.9;} .st7{fill:none;stroke:#C40D3C;stroke-width:10.0e-02;stroke-miterlimit:10;stroke-dasharray:6.1,3.0;} .st8{fill:none;stroke:#C40D3C;stroke-width:10.0e-02;stroke-miterlimit:10;} .st9{fill:none;stroke:#C40D3C;stroke-width:10.0e-02;stroke-miterlimit:10;stroke-dasharray:6.0,3.0;} .st10{fill:none;stroke:#C40D3C;stroke-width:10.0e-02;stroke-miterlimit:10;stroke-dasharray:6.0,3.0;} .st11{display:inline;opacity:0.7;} .st12{fill:none;stroke:#003E5B;stroke-width:0.1;stroke-miterlimit:10;} .st13{fill:none;stroke:#003E5B;stroke-width:0.1;stroke-miterlimit:10;stroke-dasharray:5.9,3.0;} .st14{display:inline;fill:none;} .st15{display:inline;opacity:0.5;fill:#003E5B;} .st16{font-family:'Silka-Regular';} .st17{font-size:8px;}
</style>
<g transform="translate(-51.8,-51.9)">
<path class="st0" d="m 223,75.2 c -1,-0.5 -2,-0.8 -3,-0.8 1.4,-3.8 1.5,-7.8 0.3,-11.5 -3.8,0.9 -7.2,3.1 -9.7,6.3 -0.6,-0.9 -1.3,-1.6 -2.3,-2.1 -3.2,-1.8 -7.3,-0.6 -9.2,2.6 -1.8,3.3 -0.7,7.4 2.5,9.2 1.7,0.9 3.6,1.1 5.3,0.5 -3,3.2 -7.3,5.3 -12,5.3 -7.5,0 -13.7,-5 -15.7,-11.8 1.2,1.3 2.9,2.1 4.8,2.1 3.7,0 6.7,-3 6.7,-6.8 0,-3.7 -3,-6.8 -6.7,-6.8 -1.1,0 -2.1,0.3 -3,0.7 -0.6,-4 -2.5,-7.6 -5.4,-10.2 -2.8,2.6 -4.8,6.2 -5.4,10.2 -0.9,-0.5 -1.9,-0.7 -3,-0.7 -3.7,0 -6.7,3 -6.7,6.8 0,3.7 3,6.8 6.7,6.8 1.9,0 3.6,-0.8 4.8,-2.1 -2,6.8 -8.2,11.8 -15.7,11.8 -4.7,0 -9,-2 -12,-5.3 1.7,0.5 3.6,0.4 5.3,-0.5 3.2,-1.8 4.4,-5.9 2.5,-9.2 -1.8,-3.3 -5.9,-4.4 -9.2,-2.6 -1,0.5 -1.7,1.3 -2.3,2.1 -2.5,-3.2 -5.9,-5.4 -9.7,-6.3 -1.2,3.7 -1.2,7.7 0.3,11.5 -1,0 -2,0.3 -3,0.8 -3.2,1.8 -4.4,5.9 -2.5,9.2 1.8,3.3 5.9,4.4 9.2,2.6 1.2,-0.7 2.1,-1.6 2.7,-2.8 1.9,3.5 2.9,7.6 2.9,11.8 0,1.6 -0.1,3.1 -0.4,4.6 -0.1,0.3 0.1,0.5 0.4,0.6 10.1,1.5 22.1,2.4 35.1,2.4 13,0 25,-0.9 35.1,-2.4 0.3,0 0.5,-0.3 0.4,-0.6 -0.3,-1.5 -0.4,-3 -0.4,-4.6 0,-4.3 1.1,-8.3 2.9,-11.8 0.6,1.1 1.5,2.1 2.7,2.8 3.2,1.8 7.3,0.6 9.2,-2.6 1.9,-3.3 0.7,-7.4 -2.5,-9.2 z" />
<g >
<path class="st1" d="m 84.8,146.9 c 0,-10.8 7.3,-17.8 17.3,-17.8 3.6,0 7.7,0.8 12.2,1.9 v 10.5 H 114 c -2.7,-4 -6.7,-10 -10.8,-10 -4.1,0 -7.8,6.3 -7.8,15.4 0,9.1 3.7,15.4 7.8,15.4 3.6,0 7.3,-5 10.8,-10.1 h 0.3 v 10.6 c -4.6,1.1 -8.4,1.9 -12.6,1.9 -9.5,0 -16.9,-7 -16.9,-17.8 z" />
<path class="st1" d="M 131,164.2 H 119 V 164 c 0,-0.2 1.5,-4.4 1.5,-8 v -18.6 c 0,-3.6 -1.6,-7.6 -1.6,-7.8 v -0.2 l 1.5,-0.2 9.2,-1 v 15.3 c 1.5,-2.2 4,-4.1 7.6,-4.1 4.5,0 8,2.9 8,8 v 8.6 c 0,3.6 1.5,7.8 1.5,8 v 0.2 h -12 V 164 c 0,-0.2 1.5,-4.4 1.5,-8 v -7.3 c 0,-2.8 -1.8,-3.7 -3.8,-3.7 -0.9,0 -1.9,0.2 -2.8,0.5 V 156 c 0,3.6 1.5,7.8 1.5,8 v 0.2 z" />
<path class="st1" d="m 149.7,156.7 c 0,-4.9 4.3,-8 9.1,-8 1.4,0 3.6,0.3 5.5,1.1 v -2.6 c 0,-3.3 0,-5.4 -1.1,-5.4 -2.7,0 -11.2,6.8 -11.2,6.8 h -0.2 V 141 c 4.8,-1.1 9.4,-1.6 12,-1.6 7.2,0 9.5,3.8 9.5,8.5 v 8.3 c 0,3.1 0.5,4.6 3,3.3 l 0.1,0.1 c -0.2,2.8 -2.3,5 -5.9,5 -3,0 -5,-1.5 -5.9,-4.2 -1,1.9 -3.4,4.2 -7.3,4.2 -5,0.1 -7.6,-4.1 -7.6,-7.9 z m 13,3.1 c 0.7,0 1.2,-0.2 1.8,-0.6 -0.1,-0.5 -0.1,-1.1 -0.1,-1.7 v -6 c -0.5,-0.1 -1,-0.2 -1.4,-0.2 -2.8,0 -3.8,1.7 -3.8,4 -0.1,2.5 1.1,4.5 3.5,4.5 z" />
<path class="st1" d="m 191.3,164.2 h -12 V 164 c 0,-0.2 1.5,-4.4 1.5,-8 v -8.1 c 0,-3.6 -1.5,-7.8 -1.5,-8 v -0.2 h 10.5 v 5.2 c 1.7,-3.9 4.7,-7.2 10.4,-5.3 l -1.4,9.5 h -0.2 c -2,-2.3 -5.1,-4.7 -8.7,-2.9 v 9.8 c 0,3.6 1.5,7.8 1.5,8 v 0.2 z" />
<path class="st1" d="m 214.5,164.2 h -12 V 164 c 0,-0.2 1.5,-4.4 1.5,-8 v -18.6 c 0,-3.6 -1.6,-7.6 -1.6,-7.8 v -0.2 l 1.5,-0.2 9.2,-1 V 156 c 0,3.6 1.5,7.8 1.5,8 v 0.2 z" />
<path class="st1" d="m 217,152 c 0,-8.1 5.3,-12.6 13.1,-12.6 9.1,0 11.8,6.7 11.8,12.2 H 227 c 0.6,4.3 2.4,7.3 7,7.3 2.4,0 4.3,-0.6 7.1,-2.1 l 0.2,0.1 c -1,3.1 -4.8,7.8 -11.4,7.8 -6,0 -12.9,-3.7 -12.9,-12.7 z m 9.9,-1.6 6.1,-1.9 c 0,-2.9 -0.2,-6.9 -3.1,-6.9 -2.8,0 -3.2,3.9 -3.1,6.9 0,0.6 0.1,1.3 0.1,1.9 z" />
<path class="st1" d="M 246,162.9 V 155 h 0.2 c 3.2,3.1 6.8,7.3 10.4,7.3 1.5,0 2.8,-0.7 2.8,-2.2 0,-2 -2.4,-2.7 -6.3,-4.1 -5.3,-1.9 -8.1,-4.9 -8.1,-8.8 0,-4.8 4.3,-7.7 11,-7.7 1.9,0 5.4,0.2 9.1,1.6 v 7.6 H 265 c -3,-3.2 -6.4,-7 -9.8,-7 -1.3,0 -2.6,0.5 -2.6,2 0,2 2.6,2.9 6.3,4.2 6.3,2.2 7.7,5.2 7.7,8.4 0,6 -5.3,8.4 -10.5,8.4 -2.1,0 -5.6,-0.3 -10.1,-1.8 z" />
<path class="st1" d="m 53.3,201.4 v -11.8 c 0,-3.6 -1.5,-7.8 -1.5,-8 v -0.2 h 12.6 v 0.2 c 0,0.2 -1.5,4.4 -1.5,8 v 12.9 c 0,7.1 2.9,10.1 7.5,10.1 4.6,0 7.5,-3.1 7.5,-9.7 v -9.2 c 0,-5.5 -3,-11.7 -3,-12 v -0.3 h 9.2 v 0.3 c 0,0.3 -3,6.5 -3,12 v 9.2 c 0,9.8 -6,13.7 -13.3,13.7 -6.8,0 -14.5,-3.5 -14.5,-15.2 z" />
<path class="st1" d="m 97.5,216 h -12 v -0.2 c 0,-0.2 1.5,-4.4 1.5,-8 v -8.1 c 0,-3.6 -1.5,-7.8 -1.5,-8 v -0.2 H 96 v 4.1 c 1.2,-2.2 3.8,-4.4 7.7,-4.4 4.5,0 8,2.9 8,8 v 8.6 c 0,3.6 1.5,7.8 1.5,8 v 0.2 h -12 v -0.2 c 0,-0.2 1.5,-4.4 1.5,-8 v -7.3 c 0,-2.8 -1.7,-3.7 -3.5,-3.8 -1.1,0 -2.2,0.3 -3.2,0.7 v 10.4 c 0,3.6 1.5,7.8 1.5,8 z" />
<path class="st1" d="m 129.7,216 h -12 v -0.2 c 0,-0.2 1.5,-4.4 1.5,-8 v -8.1 c 0,-3.6 -1.5,-7.8 -1.5,-8 v -0.2 h 10.5 v 16.3 c 0,3.6 1.5,7.8 1.5,8 z m -11.9,-31.9 c 0,-3 2.4,-5.3 5.4,-5.3 3,0 5.4,2.4 5.4,5.3 0,2.9 -2.5,5.3 -5.4,5.3 -2.8,0.1 -5.4,-2.3 -5.4,-5.3 z" />
<path class="st1" d="m 159.9,203.9 c 0,-8.1 5.3,-12.6 13.1,-12.6 9.1,0 11.8,6.7 11.8,12.2 H 170 c 0.6,4.3 2.4,7.3 7,7.3 2.4,0 4.3,-0.6 7.1,-2.1 l 0.2,0.1 c -1,3.1 -4.8,7.8 -11.4,7.8 -6.1,0 -13,-3.8 -13,-12.7 z m 9.9,-1.7 6.1,-1.9 c 0,-2.9 -0.2,-6.9 -3.1,-6.9 -2.8,0 -3.2,3.9 -3.1,6.9 0,0.7 0,1.3 0.1,1.9 z" />
<path class="st1" d="m 199.8,216 h -12 v -0.2 c 0,-0.2 1.5,-4.4 1.5,-8 v -8.1 c 0,-3.6 -1.5,-7.8 -1.5,-8 v -0.2 h 10.5 v 5.2 c 1.7,-3.9 4.7,-7.2 10.4,-5.3 l -1.4,9.5 h -0.2 c -2,-2.3 -5.1,-4.7 -8.7,-2.9 v 9.8 c 0,3.6 1.5,7.8 1.5,8 v 0.2 z" />
<path class="st1" d="m 211.7,214.7 v -7.9 h 0.2 c 3.2,3.1 6.8,7.3 10.4,7.3 1.5,0 2.8,-0.7 2.8,-2.2 0,-2 -2.4,-2.7 -6.3,-4.1 -5.3,-1.9 -8.1,-4.9 -8.1,-8.8 0,-4.8 4.3,-7.7 11,-7.7 1.9,0 5.4,0.2 9.1,1.6 v 7.6 h -0.2 c -3,-3.2 -6.4,-7 -9.8,-7 -1.3,0 -2.6,0.5 -2.6,2 0,2 2.6,2.9 6.3,4.2 6.3,2.2 7.7,5.2 7.7,8.4 0,6 -5.3,8.4 -10.5,8.4 -2,0 -5.6,-0.3 -10,-1.8 z" />
<path class="st1" d="m 248.6,216 h -12 v -0.2 c 0,-0.2 1.5,-4.4 1.5,-8 v -8.1 c 0,-3.6 -1.5,-7.8 -1.5,-8 v -0.2 h 10.5 v 16.3 c 0,3.6 1.5,7.8 1.5,8 z m -11.8,-31.9 c 0,-3 2.4,-5.3 5.4,-5.3 3,0 5.4,2.4 5.4,5.3 0,2.9 -2.5,5.3 -5.4,5.3 -2.9,0.1 -5.4,-2.3 -5.4,-5.3 z" />
<path class="st1" d="m 254.2,208.1 v -14.2 h -3.5 v -2.4 c 5.4,-2.8 9.2,-5.8 12.5,-9.1 v 9.1 h 6.4 v 2.4 h -6.4 v 13.4 c 0,2.4 1.3,3.4 3.1,3.4 1,0 2,-0.3 3.1,-0.7 -1.1,3.2 -3.3,6.6 -8.1,6.6 -4.3,0 -7.1,-2.9 -7.1,-8.5 z" />
<path class="st1" d="m 275.3,216.4 h 0.1 c 3.7,4 7.7,5.9 9.6,1.4 l 0.2,-0.6 -8.7,-18.2 c -1.6,-3.3 -4.2,-7 -4.3,-7.2 v -0.2 h 14.1 v 0.2 c 0,0.1 -1.7,3.6 -0.3,6.6 l 3.8,7.9 3.3,-7.8 c 1.3,-3 -0.6,-6.6 -0.6,-6.7 v -0.2 h 7 v 0.2 c -0.1,0.2 -2.6,4.1 -4.1,7.5 l -8.6,20.3 c -2.5,6.1 -6.4,7.4 -13.2,5 z" />
<path class="st1" d="m 131.8,191.7 v -0.1 H 146 v 0.2 c 0,0.1 -1.8,3.6 -0.5,6.7 l 4.1,9.1 3.7,-9.1 c 1.2,-3 -0.6,-6.6 -0.6,-6.7 v -0.2 h 7.4 v 0.2 c 0,0.2 -2.6,4.1 -4,7.5 L 149,216 h -5.5 l -7.6,-16.8 c -1.4,-3.4 -4.1,-7.3 -4.1,-7.5 z" />
</g>
</g>
<g class="st2" transform="translate(-51.8,-51.9)">
<path class="st3" d="m 223,23.4 c -1,-0.5 -2,-0.8 -3,-0.8 1.4,-3.8 1.5,-7.8 0.3,-11.5 -3.8,0.9 -7.2,3.1 -9.7,6.3 -0.6,-0.9 -1.3,-1.6 -2.3,-2.1 -3.2,-1.8 -7.3,-0.6 -9.2,2.6 -1.8,3.3 -0.7,7.4 2.5,9.2 1.7,0.9 3.6,1.1 5.3,0.5 -3,3.2 -7.3,5.3 -12,5.3 -7.5,0 -13.7,-5 -15.7,-11.8 1.2,1.3 2.9,2.1 4.8,2.1 3.7,0 6.7,-3 6.7,-6.8 0,-3.7 -3,-6.8 -6.7,-6.8 -1.1,0 -2.1,0.3 -3,0.7 -0.6,-4 -2.5,-7.6 -5.4,-10.2 -2.8,2.6 -4.8,6.2 -5.4,10.2 -0.9,-0.5 -1.9,-0.7 -3,-0.7 -3.7,0 -6.7,3 -6.7,6.8 0,3.7 3,6.8 6.7,6.8 1.9,0 3.6,-0.8 4.8,-2.1 -2,6.8 -8.2,11.8 -15.7,11.8 -4.7,0 -9,-2 -12,-5.3 1.7,0.5 3.6,0.4 5.3,-0.5 3.2,-1.8 4.4,-5.9 2.5,-9.2 -1.8,-3.3 -5.9,-4.4 -9.2,-2.6 -1,0.5 -1.7,1.3 -2.3,2.1 -2.5,-3.2 -5.9,-5.4 -9.7,-6.3 -1.2,3.7 -1.2,7.7 0.3,11.5 -1,0 -2,0.3 -3,0.8 -3.2,1.8 -4.4,5.9 -2.5,9.2 1.8,3.3 5.9,4.4 9.2,2.6 1.2,-0.7 2.1,-1.6 2.7,-2.8 1.9,3.5 2.9,7.6 2.9,11.8 0,1.6 -0.1,3.1 -0.4,4.6 -0.1,0.3 0.1,0.5 0.4,0.6 10.1,1.5 22.1,2.4 35.1,2.4 13,0 25,-0.9 35.1,-2.4 0.3,0 0.5,-0.3 0.4,-0.6 -0.3,-1.5 -0.4,-3 -0.4,-4.6 0,-4.3 1.1,-8.3 2.9,-11.8 0.6,1.1 1.5,2.1 2.7,2.8 3.2,1.8 7.3,0.6 9.2,-2.6 1.8,-3.3 0.7,-7.4 -2.5,-9.2 z" />
<path class="st3" d="m 241.7,244.5 c -1,0.5 -2,0.8 -3,0.8 1.4,3.8 1.5,7.8 0.3,11.5 -3.8,-0.9 -7.2,-3.1 -9.7,-6.3 -0.6,0.9 -1.3,1.6 -2.3,2.1 -3.2,1.8 -7.3,0.6 -9.2,-2.6 -1.8,-3.3 -0.7,-7.4 2.5,-9.2 1.7,-0.9 3.6,-1.1 5.3,-0.5 -3,-3.2 -7.3,-5.3 -12,-5.3 -7.5,0 -13.7,5 -15.7,11.8 1.2,-1.3 2.9,-2.1 4.8,-2.1 3.7,0 6.7,3 6.7,6.8 0,3.7 -3,6.8 -6.7,6.8 -1.1,0 -2.1,-0.3 -3,-0.7 -0.6,4 -2.5,7.6 -5.4,10.2 -2.8,-2.6 -4.8,-6.2 -5.4,-10.2 -0.9,0.5 -1.9,0.7 -3,0.7 -3.7,0 -6.7,-3 -6.7,-6.8 0,-3.7 3,-6.8 6.7,-6.8 1.9,0 3.6,0.8 4.8,2.1 -2,-6.8 -8.2,-11.8 -15.7,-11.8 -4.7,0 -9,2 -12,5.3 1.7,-0.5 3.6,-0.4 5.3,0.5 3.2,1.8 4.4,5.9 2.5,9.2 -1.8,3.3 -5.9,4.4 -9.2,2.6 -1,-0.5 -1.7,-1.3 -2.3,-2.1 -2.5,3.2 -5.9,5.4 -9.7,6.3 -1.2,-3.7 -1.2,-7.7 0.3,-11.5 -1,0 -2,-0.3 -3,-0.8 -3.2,-1.8 -4.4,-5.9 -2.5,-9.2 1.8,-3.3 5.9,-4.4 9.2,-2.6 1.2,0.7 2.1,1.6 2.7,2.8 1.9,-3.5 2.9,-7.6 2.9,-11.8 0,-1.6 -0.1,-3.1 -0.4,-4.6 -0.1,-0.3 0.1,-0.5 0.4,-0.6 10.1,-1.5 22.1,-2.4 35.1,-2.4 13,0 25,0.9 35.1,2.4 0.3,0 0.5,0.3 0.4,0.6 -0.3,1.5 -0.4,3 -0.4,4.6 0,4.3 1.1,8.3 2.9,11.8 0.6,-1.1 1.5,-2.1 2.7,-2.8 3.2,-1.8 7.3,-0.6 9.2,2.6 1.8,3.3 0.7,7.4 -2.5,9.2 z" />
<path class="st3" d="m 23.4,134.2 c -0.5,1 -0.8,2 -0.8,3 -3.8,-1.4 -7.8,-1.5 -11.5,-0.3 0.9,3.8 3.1,7.2 6.3,9.7 -0.9,0.6 -1.6,1.3 -2.1,2.3 -1.8,3.2 -0.6,7.3 2.6,9.2 3.3,1.8 7.4,0.7 9.2,-2.5 0.9,-1.7 1.1,-3.6 0.5,-5.3 3.2,3 5.3,7.3 5.3,12 0,7.5 -5,13.7 -11.8,15.7 1.3,-1.2 2.1,-2.9 2.1,-4.8 0,-3.7 -3,-6.7 -6.8,-6.7 -3.7,0 -6.8,3 -6.8,6.7 0,1.1 0.3,2.1 0.7,3 -4,0.6 -7.6,2.5 -10.2,5.4 2.6,2.8 6.2,4.8 10.2,5.4 -0.5,0.9 -0.7,1.9 -0.7,3 0,3.7 3,6.7 6.8,6.7 3.7,0 6.8,-3 6.8,-6.7 0,-1.9 -0.8,-3.6 -2.1,-4.8 6.8,2 11.8,8.2 11.8,15.7 0,4.7 -2,9 -5.3,12 0.5,-1.7 0.4,-3.6 -0.5,-5.3 -1.8,-3.2 -5.9,-4.4 -9.2,-2.5 -3.3,1.8 -4.4,5.9 -2.6,9.2 0.5,1 1.3,1.7 2.1,2.3 -3.2,2.5 -5.4,5.9 -6.3,9.7 3.7,1.2 7.7,1.2 11.5,-0.3 0,1 0.3,2 0.8,3 1.8,3.2 5.9,4.4 9.2,2.5 3.3,-1.8 4.4,-5.9 2.6,-9.2 -0.7,-1.2 -1.6,-2.1 -2.8,-2.7 3.5,-1.9 7.6,-2.9 11.8,-2.9 1.6,0 3.1,0.1 4.6,0.4 0.3,0.1 0.5,-0.1 0.6,-0.4 1.5,-10.1 2.4,-22.1 2.4,-35.1 0,-13 -0.9,-25 -2.4,-35.1 0,-0.3 -0.3,-0.5 -0.6,-0.4 -1.5,0.3 -3,0.4 -4.6,0.4 -4.3,0 -8.3,-1.1 -11.8,-2.9 1.1,-0.6 2.1,-1.5 2.8,-2.7 1.8,-3.2 0.6,-7.3 -2.6,-9.2 -3.3,-1.9 -7.4,-0.8 -9.2,2.5 z" />
<path class="st3" d="m 328,238.8 c 0.5,-1 0.8,-2 0.8,-3 3.8,1.4 7.8,1.5 11.5,0.3 -0.9,-3.8 -3.1,-7.2 -6.3,-9.7 0.9,-0.6 1.6,-1.3 2.1,-2.3 1.8,-3.2 0.6,-7.3 -2.6,-9.2 -3.3,-1.8 -7.4,-0.7 -9.2,2.5 -0.9,1.7 -1.1,3.6 -0.5,5.3 -3.2,-3 -5.3,-7.3 -5.3,-12 0,-7.5 5,-13.7 11.8,-15.7 -1.3,1.2 -2.1,2.9 -2.1,4.8 0,3.7 3,6.7 6.8,6.7 3.7,0 6.8,-3 6.8,-6.7 0,-1.1 -0.3,-2.1 -0.7,-3 4,-0.6 7.6,-2.5 10.2,-5.4 -2.6,-2.8 -6.2,-4.8 -10.2,-5.4 0.5,-0.9 0.7,-1.9 0.7,-3 0,-3.7 -3,-6.7 -6.8,-6.7 -3.7,0 -6.8,3 -6.8,6.7 0,1.9 0.8,3.6 2.1,4.8 -6.8,-2 -11.8,-8.2 -11.8,-15.7 0,-4.7 2,-9 5.3,-12 -0.5,1.7 -0.4,3.6 0.5,5.3 1.8,3.2 5.9,4.4 9.2,2.5 3.3,-1.8 4.4,-5.9 2.6,-9.2 -0.5,-1 -1.3,-1.7 -2.1,-2.3 3.2,-2.5 5.4,-5.9 6.3,-9.7 -3.7,-1.2 -7.7,-1.2 -11.5,0.3 0,-1 -0.3,-2 -0.8,-3 -1.8,-3.2 -5.9,-4.4 -9.2,-2.5 -3.3,1.8 -4.4,5.9 -2.6,9.2 0.7,1.2 1.6,2.1 2.8,2.7 -3.5,1.9 -7.6,2.9 -11.8,2.9 -1.6,0 -3.1,-0.1 -4.6,-0.4 -0.3,-0.1 -0.5,0.1 -0.6,0.4 -1.5,10.1 -2.4,22.1 -2.4,35.1 0,13 0.9,25 2.4,35.1 0,0.3 0.3,0.5 0.6,0.4 1.5,-0.3 3,-0.4 4.6,-0.4 4.3,0 8.3,1.1 11.8,2.9 -1.1,0.6 -2.1,1.5 -2.8,2.7 -1.8,3.2 -0.6,7.3 2.6,9.2 3.3,1.9 7.4,0.8 9.2,-2.5 z" />
<g class="st4" >
<g >
<polyline class="st5" points="299.5,213 299.5,216 296.5,216    " />
<line class="st6" x1="293.6" y1="216" x2="56.3" y2="216" />
<polyline class="st5" points="54.8,216 51.8,216 51.8,213    " />
<line class="st7" x1="51.8" y1="210" x2="51.8" y2="56.4" />
<polyline class="st5" points="51.8,54.8 51.8,51.8 54.8,51.8    " />
<line class="st6" x1="57.8" y1="51.8" x2="295.1" y2="51.8" />
<polyline class="st5" points="296.5,51.8 299.5,51.8 299.5,54.8    " />
<line class="st7" x1="299.5" y1="57.9" x2="299.5" y2="211.5" />
</g>
</g>
<g class="st4" >
<g >
<polyline class="st8" points="351.4,264.9 351.4,267.9 348.4,267.9    " />
<line class="st9" x1="345.4" y1="267.9" x2="4.5" y2="267.9" />
<polyline class="st8" points="3,267.9 0,267.9 0,264.9    " />
<line class="st10" x1="0" y1="261.9" x2="0" y2="4.5" />
<polyline class="st8" points="0,3 0,0 3,0    " />
<line class="st9" x1="6" y1="0" x2="346.9" y2="0" />
<polyline class="st8" points="348.4,0 351.4,0 351.4,3    " />
<line class="st10" x1="351.4" y1="6" x2="351.4" y2="263.4" />
</g>
</g>
</g>
<g class="st2" transform="translate(-51.8,-51.9)">
<g class="st11" >
<g >
<line class="st12" x1="41.4" y1="216" x2="44.4" y2="216" />
<line class="st13" x1="47.4" y1="216" x2="304.1" y2="216" />
<line class="st12" x1="305.6" y1="216" x2="308.6" y2="216" />
</g>
</g>
<g class="st11" >
<g >
<line class="st12" x1="41.4" y1="181.5" x2="44.4" y2="181.5" />
<line class="st13" x1="47.4" y1="181.5" x2="304.1" y2="181.5" />
<line class="st12" x1="305.6" y1="181.5" x2="308.6" y2="181.5" />
</g>
</g>
<g class="st11" >
<g >
<line class="st12" x1="41.4" y1="164.2" x2="44.4" y2="164.2" />
<line class="st13" x1="47.4" y1="164.2" x2="304.1" y2="164.2" />
<line class="st12" x1="305.6" y1="164.2" x2="308.6" y2="164.2" />
</g>
</g>
<g class="st11" >
<g >
<line class="st12" x1="41.4" y1="129.6" x2="44.4" y2="129.6" />
<line class="st13" x1="47.4" y1="129.6" x2="304.1" y2="129.6" />
<line class="st12" x1="305.6" y1="129.6" x2="308.6" y2="129.6" />
</g>
</g>
<g class="st11" >
<g >
<line class="st12" x1="41.4" y1="103.7" x2="44.4" y2="103.7" />
<line class="st13" x1="47.4" y1="103.7" x2="304.1" y2="103.7" />
<line class="st12" x1="305.6" y1="103.7" x2="308.6" y2="103.7" />
</g>
</g>
<g class="st11" >
<g >
<line class="st12" x1="41.4" y1="51.8" x2="44.4" y2="51.8" />
<line class="st13" x1="47.4" y1="51.8" x2="304.1" y2="51.8" />
<line class="st12" x1="305.6" y1="51.8" x2="308.6" y2="51.8" />
</g>
</g>
<rect x="5.9" y="51.2" class="st14" width="34" height="52.4" />
<text transform="translate(23.4,80.4)" class="st15 st16 st17" >1.5 ×</text>
<rect x="5.9" y="103.6" class="st14" width="34" height="26" />
<text transform="translate(17.6,119.6)" class="st15 st16 st17" >0.8 ×</text>
<rect x="5.9" y="129.6" class="st14" width="34" height="34.6" />
<text transform="translate(30.4,149.9)" class="st15 st16 st17" >1 ×</text>
<rect x="5.9" y="181.4" class="st14" width="34" height="34.6" />
<text transform="translate(30.4,201.7)" class="st15 st16 st17" >1 ×</text>
<rect x="5.9" y="164.2" class="st14" width="34" height="17.2" />
<text transform="translate(22.0,175.8)" class="st15 st16 st17" >0.5 ×</text>
</g>
</svg>
