<?xml version="1.0" encoding="UTF-8" standalone="no"?>
<svg
   xmlns:dc="http://purl.org/dc/elements/1.1/"
   xmlns:cc="http://creativecommons.org/ns#"
   xmlns:rdf="http://www.w3.org/1999/02/22-rdf-syntax-ns#"
   xmlns:svg="http://www.w3.org/2000/svg"
   xmlns="http://www.w3.org/2000/svg"
   viewBox="0 0 18.448583 25.197029"
   height="25.197029"
   width="18.448584"
   id="svg2"
   version="1.1">
  <metadata
     id="metadata8">
    <rdf:RDF>
      <cc:Work
         rdf:about="">
        <dc:format>image/svg+xml</dc:format>
        <dc:type
           rdf:resource="http://purl.org/dc/dcmitype/StillImage" />
        <dc:title></dc:title>
      </cc:Work>
    </rdf:RDF>
  </metadata>
  <defs
     id="defs6" />
  <path
     id="path4487"
     d="m 3.2148895,25.173323 c -0.05901,-0.02798 -0.117848,-0.0863 -0.139497,-0.138263 -0.0086,-0.02073 -0.01549,-0.06621 -0.01549,-0.10281 0,-0.03659 0.0069,-0.08208 0.01549,-0.10281 0.02165,-0.05197 0.08048,-0.110283 0.139497,-0.138263 l 0.04999,-0.0237 2.477242,-1e-4 2.477242,-10e-5 -1.75e-4,-2.577231 -1.75e-4,-2.577232 -0.06719,-0.04 c -0.122711,-0.07304 -0.335446,-0.24052 -0.492398,-0.387653 -0.08524,-0.07991 -1.698834,-1.690203 -3.585762,-3.57843 -2.422189,-2.423858 -3.45812499,-3.466946 -3.52379899,-3.54813 -0.486112,-0.600913 -0.650645,-1.212553 -0.490676,-1.824052 0.0775,-0.2962706 0.249967,-0.6181056 0.490676,-0.9156626 0.06567,-0.081184 1.10160999,-1.1242721 3.52379899,-3.5481293 1.886928,-1.8882277 3.500521,-3.4985211 3.585762,-3.5784299 0.15657,-0.1467759 0.36914,-0.314195 0.492205,-0.387658 l 0.067,-0.039996 0.0029,-0.74071427 0.0029,-0.74071438 0.03021,-0.0488581 c 0.03525,-0.0570035 0.09965,-0.10940232 0.152522,-0.1240848 0.02422,-0.006725 0.313547,-0.01032879603 0.827161,-0.010301496034 l 0.7899175,4.200000001e-5 0.05,0.02367519603 c 0.06048,0.0286423 0.10689,0.0757103 0.1342,0.13611273 0.01985,0.0439036 0.02035,0.0627061 0.02074,0.77491935 l 3.9e-4,0.72992387 0.06719,0.039996 c 0.122712,0.073042 0.335447,0.2405249 0.492399,0.3876581 0.08524,0.079909 1.698834,1.6902022 3.585762,3.5784299 2.422189,2.4238572 3.458125,3.4669457 3.523798,3.5481293 0.486111,0.6009138 0.650644,1.2125544 0.490676,1.8240524 -0.0775,0.296271 -0.249967,0.618106 -0.490676,0.915662 -0.06567,0.08118 -1.101609,1.124272 -3.523798,3.54813 -1.886928,1.888227 -3.500521,3.498521 -3.585762,3.57843 -0.156952,0.147133 -0.369687,0.314616 -0.492399,0.387658 l -0.06719,0.04 -1.7e-4,2.577232 -1.7e-4,2.577232 2.477242,10e-5 2.477242,10e-5 0.04999,0.0237 c 0.05901,0.02798 0.117848,0.0863 0.139497,0.138263 0.01998,0.04796 0.01998,0.15766 0,0.20562 -0.02165,0.05197 -0.08048,0.110283 -0.139497,0.138263 l -0.04999,0.0237 H 9.2243245 3.2649455 l -0.05,-0.0237 z m 6.484324,-2.966955 v -2.460911 l -0.0225,0.0061 c -0.143492,0.03901 -0.249541,0.05095 -0.452453,0.05095 -0.202912,0 -0.308962,-0.01194 -0.452453,-0.05095 l -0.0225,-0.0061 v 2.460911 2.460909 h 0.474951 0.47495 z m -0.245043,-2.953043 c 0.32818,-0.06344 0.6413075,-0.24725 1.0099645,-0.592875 0.08249,-0.07734 1.673586,-1.665262 3.535766,-3.52872 2.393456,-2.395099 3.412851,-3.421623 3.478137,-3.502463 0.584697,-0.724 0.584697,-1.357046 0,-2.0810456 C 17.412752,9.4673814 16.393357,8.4408562 13.999901,6.045758 12.137721,4.1822998 10.546626,2.5943757 10.464135,2.5170378 10.151651,2.224076 9.8973485,2.0584674 9.6251545,1.970672 9.4652725,1.919102 9.3806295,1.9053 9.2242635,1.9053 c -0.156367,0 -0.241009,0.013802 -0.400892,0.065372 -0.272193,0.087796 -0.526495,0.2534044 -0.838979,0.5463662 -0.08249,0.077338 -1.673586,1.665262 -3.535767,3.5287202 -2.393455,2.3950982 -3.41285,3.421623 -3.47813599,3.502463 -0.584697,0.7239996 -0.584697,1.3570456 0,2.0810456 0.06529,0.08084 1.08468099,1.107364 3.47813599,3.502463 1.862181,1.863458 3.453276,3.451382 3.535767,3.52872 0.229111,0.214798 0.420502,0.355868 0.621974,0.458443 0.113683,0.05788 0.307798,0.122757 0.412918,0.138005 0.04125,0.006 0.08624,0.01285 0.09999,0.01525 0.04732,0.0083 0.255109,-0.0034 0.334896,-0.01882 z M 5.1746855,14.65117 c -0.03496,-0.0085 -0.06499,-0.04418 -0.06499,-0.07726 0,-0.01705 0.01199,-0.04858 0.02671,-0.07025 0.01469,-0.02162 0.674033,-0.839803 1.465201,-1.818181 0.979057,-1.210726 1.43554,-1.782525 1.429261,-1.790318 -0.0051,-0.0063 -0.667104,-0.9158536 -1.471177,-2.0212397 l -1.461951,-2.0097896 0.0053,-0.086623 c 0.0061,-0.099688 0.02462,-0.1445874 0.06436,-0.1557068 0.01502,-0.0042 1.558641,-0.00764 3.430261,-0.00764 h 3.4029465 l 0.34389,0.9349026 c 0.189137,0.5141965 0.344011,0.9360275 0.344163,0.9374024 1.49e-4,0.00137 -0.04476,0.0025 -0.0998,0.0025 H 12.48879 L 12.47223,8.4464709 C 12.432947,8.345769 12.306216,8.112541 12.241474,8.0218614 12.085767,7.8037711 11.915118,7.6406047 11.679008,7.4840572 11.296658,7.2305484 10.809729,7.0670415 10.204162,6.988816 9.7953225,6.936003 9.8172475,6.936526 7.8251895,6.93208 6.2936935,6.92866 5.9679975,6.93024 5.9765795,6.94103 c 0.02989,0.03758 2.594478,3.561054 2.625808,3.607588 0.04949,0.0735 0.04846,0.102317 -0.0063,0.176515 -0.02379,0.03223 -0.664598,0.826706 -1.42401,1.765509 -0.759411,0.938803 -1.383796,1.711846 -1.38752,1.717872 -0.0096,0.01548 3.834829,0.0072 4.02467,-0.0086 0.6475355,-0.05411 1.0419955,-0.129818 1.3848555,-0.265779 0.581503,-0.230594 1.052752,-0.670591 1.25392,-1.170763 l 0.04014,-0.09981 0.100391,-0.0029 c 0.05522,-0.0016 0.100273,-0.0016 0.100127,0 -1.4e-4,0.0016 -0.154969,0.450553 -0.344051,0.997746 l -0.343788,0.994897 -3.4030575,0.0013 c -1.871682,7.4e-4 -3.412058,-8.33e-4 -3.423056,-0.0035 z M 8.9042965,1.3973806 c 0.09332,-0.01902 0.141806,-0.022417 0.319967,-0.022417 0.202912,0 0.308961,0.011942 0.452453,0.050951 l 0.0225,0.00612 V 0.98091093 0.52979163 h -0.474953 -0.474951 v 0.4511193 0.45111927 l 0.0225,-0.00612 c 0.01237,-0.00336 0.07199,-0.016204 0.132486,-0.028533 z"
     style="fill:#000000;stroke-width:0.00999896" />
</svg>
